<svg width="152" height="163" viewBox="0 0 152 163" fill="none" xmlns="http://www.w3.org/2000/svg">
<g clip-path="url(#clip0)">
<path d="M130.599 82.2322C130.171 80.994 128.887 80.3634 127.734 80.8218C126.579 81.2809 125.99 82.6568 126.418 83.895C128.673 90.4146 129.816 96.0039 129.816 100.508C129.816 132.33 105.674 158.218 76.0001 158.218C46.3259 158.218 22.184 132.33 22.184 100.508C22.184 90.2628 27.8816 75.0514 39.1187 55.2956C39.7596 54.1684 39.4273 52.6971 38.3761 52.0095C37.3246 51.3215 35.953 51.678 35.3115 52.8058C23.6419 73.3223 17.7249 89.3718 17.7249 100.508C17.7249 134.966 43.8668 163 75.9998 163C108.133 163 134.275 134.966 134.275 100.508C134.275 95.4346 133.038 89.286 130.599 82.2322V82.2322Z" fill="#198F9F"/>
<path d="M41.2192 47.1989C41.5959 47.4632 42.0192 47.5897 42.4384 47.5897C43.1652 47.5897 43.8781 47.2091 44.3059 46.5078C53.7774 30.9906 64.1042 16.6211 71.0992 7.29935C72.2996 5.69934 74.0859 4.78186 76.0001 4.78186C77.9143 4.78186 79.7003 5.69934 80.901 7.29935C86.2782 14.4651 94.3831 25.6372 102.459 38.1688C103.159 39.255 104.548 39.5272 105.561 38.7764C106.574 38.0257 106.828 36.5366 106.128 35.4502C97.9751 22.8002 89.7985 11.5294 84.375 4.30176C82.3235 1.56781 79.2707 0 76.0001 0C72.7295 0 69.6767 1.56781 67.6252 4.30176C60.5675 13.7071 50.1456 28.2098 40.5747 43.8892C39.9002 44.9938 40.1889 46.4759 41.2192 47.1989V47.1989Z" fill="#198F9F"/>
<path d="M73.7706 79.466V90.5723C70.1295 85.6601 64.5151 82.5012 58.2224 82.5012H42.6326C39.5186 82.5012 36.9855 85.2179 36.9855 88.5573V101.518C36.9855 113.261 45.894 122.814 56.8442 122.814H73.7706V145.377C73.7706 146.698 74.7685 147.768 76.0002 147.768C77.2318 147.768 78.2297 146.698 78.2297 145.377V134.254H85.4158C93.2476 134.254 99.6188 127.421 99.6188 119.023V114.521C99.6188 112.172 97.8373 110.262 95.6475 110.262H87.9742C84.2044 110.262 80.7753 111.848 78.23 114.427V97.8328H93.6938C101.915 97.8328 109.804 94.583 115.906 88.6822C116.82 87.7979 116.893 86.2859 116.068 85.3053C115.244 84.3247 113.834 84.2472 112.92 85.1309C107.638 90.2382 100.811 93.0506 93.6938 93.0506H81.6196L122.415 51.8469V62.251C122.415 67.5151 121.154 72.7118 118.767 77.28C118.165 78.4318 118.548 79.889 119.622 80.5343C120.696 81.1795 122.055 80.7689 122.657 79.6171C125.416 74.337 126.874 68.3319 126.874 62.251V49.0807C126.874 46.2158 124.7 43.8848 122.029 43.8848H106.951C88.655 43.8848 73.7706 59.8463 73.7706 79.466ZM41.4446 101.518V90.3208L56.3367 104.745C56.7633 105.158 57.2975 105.361 57.8306 105.361C58.4391 105.361 59.0455 105.095 59.4855 104.573C60.3107 103.593 60.2391 102.081 59.3256 101.196L44.9614 87.2834H58.2221C66.7132 87.2834 73.6216 94.6914 73.6216 103.797V115.042L66.3773 108.026C65.4635 107.141 64.0544 107.217 63.2279 108.198C62.403 109.178 62.4746 110.689 63.3882 111.575L70.0561 118.033H56.8442C48.3531 118.032 41.4446 110.624 41.4446 101.518ZM87.9739 115.043H95.1597V119.023C95.1597 124.785 90.7885 129.472 85.4158 129.472H78.2297V125.493C78.2297 119.731 82.6009 115.043 87.9739 115.043ZM106.951 48.6666H119.06L78.2294 89.9054V79.466C78.2297 62.483 91.1137 48.6666 106.951 48.6666Z" fill="#198F9F"/>
</g>
<defs>
<clipPath id="clip0">
<rect width="152" height="163" fill="white"/>
</clipPath>
</defs>
</svg>
