<svg width="1440" height="223" viewBox="0 0 1440 223" fill="none" xmlns="http://www.w3.org/2000/svg">
<rect width="1440" height="223" fill="#198F9F"/>
<g clip-path="url(#clip0)">
<path d="M774.599 112.232C774.171 110.994 772.887 110.363 771.734 110.822C770.579 111.281 769.99 112.657 770.418 113.895C772.673 120.415 773.816 126.004 773.816 130.508C773.816 162.33 749.674 188.218 720 188.218C690.326 188.218 666.184 162.33 666.184 130.508C666.184 120.263 671.882 105.051 683.119 85.2956C683.76 84.1684 683.427 82.6971 682.376 82.0095C681.325 81.3215 679.953 81.678 679.311 82.8058C667.642 103.322 661.725 119.372 661.725 130.508C661.725 164.966 687.867 193 720 193C752.133 193 778.275 164.966 778.275 130.508C778.275 125.435 777.038 119.286 774.599 112.232V112.232Z" fill="#F6F2F4"/>
<path d="M685.219 77.1989C685.596 77.4632 686.019 77.5897 686.438 77.5897C687.165 77.5897 687.878 77.2091 688.306 76.5078C697.777 60.9906 708.104 46.6211 715.099 37.2994C716.3 35.6993 718.086 34.7819 720 34.7819C721.914 34.7819 723.7 35.6993 724.901 37.2994C730.278 44.4651 738.383 55.6372 746.459 68.1688C747.159 69.255 748.548 69.5272 749.561 68.7764C750.574 68.0257 750.828 66.5366 750.128 65.4502C741.975 52.8002 733.799 41.5294 728.375 34.3018C726.323 31.5678 723.271 30 720 30C716.729 30 713.677 31.5678 711.625 34.3018C704.568 43.7071 694.146 58.2098 684.575 73.8892C683.9 74.9938 684.189 76.4759 685.219 77.1989V77.1989Z" fill="#F6F2F4"/>
<path d="M717.771 109.466V120.572C714.13 115.66 708.515 112.501 702.222 112.501H686.633C683.519 112.501 680.985 115.218 680.985 118.557V131.518C680.985 143.261 689.894 152.814 700.844 152.814H717.771V175.377C717.771 176.698 718.769 177.768 720 177.768C721.232 177.768 722.23 176.698 722.23 175.377V164.254H729.416C737.248 164.254 743.619 157.421 743.619 149.023V144.521C743.619 142.172 741.837 140.262 739.648 140.262H731.974C728.204 140.262 724.775 141.848 722.23 144.427V127.833H737.694C745.915 127.833 753.804 124.583 759.906 118.682C760.82 117.798 760.893 116.286 760.068 115.305C759.244 114.325 757.834 114.247 756.92 115.131C751.638 120.238 744.811 123.051 737.694 123.051H725.62L766.415 81.8469V92.251C766.415 97.5151 765.154 102.712 762.767 107.28C762.165 108.432 762.548 109.889 763.622 110.534C764.696 111.179 766.055 110.769 766.657 109.617C769.416 104.337 770.874 98.3319 770.874 92.251V79.0807C770.874 76.2158 768.7 73.8848 766.029 73.8848H750.951C732.655 73.8848 717.771 89.8463 717.771 109.466ZM685.445 131.518V120.321L700.337 134.745C700.763 135.158 701.298 135.361 701.831 135.361C702.439 135.361 703.046 135.095 703.486 134.573C704.311 133.593 704.239 132.081 703.326 131.196L688.961 117.283H702.222C710.713 117.283 717.622 124.691 717.622 133.797V145.042L710.377 138.026C709.463 137.141 708.054 137.217 707.228 138.198C706.403 139.178 706.475 140.689 707.388 141.575L714.056 148.033H700.844C692.353 148.032 685.445 140.624 685.445 131.518ZM731.974 145.043H739.16V149.023C739.16 154.785 734.789 159.472 729.416 159.472H722.23V155.493C722.23 149.731 726.601 145.043 731.974 145.043ZM750.951 78.6666H763.06L722.229 119.905V109.466C722.23 92.483 735.114 78.6666 750.951 78.6666Z" fill="#F6F2F4"/>
</g>
<defs>
<clipPath id="clip0">
<rect width="152" height="163" fill="white" transform="translate(644 30)"/>
</clipPath>
</defs>
</svg>
